<?xml version="1.0"?>
<svg xmlns="http://www.w3.org/2000/svg" height="512px" viewBox="-27 0 512 512.001" width="512px"><g><g fill-rule="evenodd"><path d="m76.128906 363.613281c-12.640625 0-22.984375 10.339844-22.984375 22.980469v92.351562c0 12.640626 10.34375 22.984376 22.984375 22.984376h305.414063c12.640625 0 22.980469-10.34375 22.980469-22.984376v-92.351562c0-12.640625-10.34375-22.980469-22.980469-22.980469zm0 0" fill="#ec8e7b" data-original="#EC8E7B"/><path d="m313.292969 123.816406c-24.601563-14.253906-53.082031-22.414062-83.4375-22.414062-30.496094 0-59.207031 8.304687-83.976563 22.785156-25.566406 14.960938-46.734375 36.496094-61.246094 62.226562-6.207031 11.109376-2.269531 25.195313 8.839844 31.398438 11.140625 6.234375 25.195313 2.296875 31.433594-8.839844 10.515625-18.703125 25.847656-34.289062 44.269531-45.058594 17.710938-10.371093 38.429688-16.320312 60.679688-16.320312 22.078125 0 42.652343 5.867188 60.339843 16.125 18.335938 10.625 33.613282 26.011719 44.210938 44.488281 6.320312 11.054688 20.4375 14.90625 31.488281 8.585938 11.082031-6.347657 14.90625-20.429688 8.585938-31.511719-14.59375-25.445312-35.734375-46.699219-61.1875-61.464844zm0 0" fill="#b0e7f8" data-original="#B0E7F8"/><path d="m353.992188 42.09375c-36.617188-20.375-78.988282-32.023438-124.082032-32.023438-45.457031 0-88.140625 11.820313-124.871094 32.417969-37.496093 21.054688-68.785156 51.351563-90.523437 87.707031-.3125.566407-.652344 1.105469-.964844 1.644532-5.101562 8.699218-4.394531 19.238281.964844 27.0625 2.039063 2.945312 4.734375 5.523437 8.046875 7.480468 12.019531 7.054688 27.492188 3.003907 34.550781-9.011718 17.144531-29.21875 42.3125-53.699219 72.667969-70.730469 29.332031-16.464844 63.539062-25.902344 100.128906-25.902344 36.421875 0 70.402344 9.296875 99.539063 25.503907 30.15625 16.777343 55.238281 40.949218 72.554687 69.910156 7.140625 11.957031 22.671875 15.871094 34.632813 8.699218 11.988281-7.167968 15.871093-22.667968 8.730469-34.628906-21.851563-36.554687-53.453126-67.046875-91.375-88.128906zm0 0" fill="#b0e7f8" data-original="#B0E7F8"/><path d="m272.820312 203.476562c-12.867187-7.453124-27.746093-11.730468-43.558593-11.730468-15.898438 0-30.894531 4.363281-43.84375 11.957031-13.351563 7.792969-24.433594 19.042969-32 32.476563-5.070313 9.066406-1.839844 20.542968 7.226562 25.617187 9.070313 5.101563 20.550781 1.867187 25.652344-7.226563 4.308594-7.679687 10.597656-14.054687 18.109375-18.476562 7.226562-4.191406 15.699219-6.628906 24.855469-6.628906 9.070312 0 17.488281 2.40625 24.683593 6.574218 7.511719 4.363282 13.777344 10.652344 18.109376 18.25 5.160156 9.011719 16.667968 12.15625 25.707031 6.996094 9.042969-5.183594 12.160156-16.6875 7-25.726562-7.59375-13.265625-18.648438-24.375-31.941407-32.082032zm0 0" fill="#b0e7f8" data-original="#B0E7F8"/><path d="m249.15625 300.761719c0-11.253907-9.125-20.40625-20.40625-20.40625-11.277344 0-20.40625 9.152343-20.40625 20.40625 0 11.277343 9.128906 20.429687 20.40625 20.429687 11.28125 0 20.40625-9.152344 20.40625-20.429687zm0 0" fill="#52cbf0" data-original="#52CBF0"/></g><path d="m381.542969 353.542969h-111.8125c-5.5625 0-10.070313 4.507812-10.070313 10.070312s4.511719 10.070313 10.070313 10.070313h111.8125c7.117187 0 12.910156 5.792968 12.910156 12.910156v92.351562c0 7.121094-5.792969 12.914063-12.910156 12.914063h-305.414063c-7.121094 0-12.914062-5.792969-12.914062-12.914063v-92.351562c0-7.117188 5.792968-12.910156 12.914062-12.910156h110.929688c5.5625 0 10.074218-4.507813 10.074218-10.070313s-4.511718-10.070312-10.074218-10.070312h-110.929688c-18.226562 0-33.054687 14.828125-33.054687 33.050781v92.351562c0 18.226563 14.828125 33.054688 33.054687 33.054688h305.414063c18.226562 0 33.054687-14.828125 33.054687-33.054688v-92.351562c0-18.222656-14.828125-33.050781-33.054687-33.050781zm0 0" data-original="#000000" class="active-path" style="fill:#000000"/><path d="m139.765625 409.960938c2.273437 0 4.183594-.804688 5.722656-2.421876 1.542969-1.613281 2.3125-3.484374 2.3125-5.613281 0-2.347656-.789062-4.3125-2.367187-5.890625-1.578125-1.574218-3.46875-2.367187-5.667969-2.367187h-28.847656c-2.574219 0-4.738281.917969-6.5 2.753906s-2.640625 3.960937-2.640625 6.382813v62.535156c0 2.421875.917968 4.511718 2.75 6.273437 1.835937 1.761719 3.929687 2.644531 6.277344 2.644531 2.496093 0 4.605468-.882812 6.332031-2.644531 1.722656-1.761719 2.585937-3.851562 2.585937-6.273437v-23.671875h16.957032c2.421874 0 4.441406-.785157 6.058593-2.367188 1.613281-1.574219 2.421875-3.464843 2.421875-5.667969 0-2.273437-.824218-4.199218-2.476562-5.78125-1.652344-1.578124-3.652344-2.367187-6-2.367187h-16.957032v-15.519531h20.039063zm0 0" data-original="#000000" class="active-path" style="fill:#000000"/><path d="m225.210938 418.4375c0-7.265625-2.585938-13.191406-7.761719-17.777344-5.175781-4.585937-11.726563-6.882812-19.652344-6.882812h-20.480469c-2.570312 0-4.734375.882812-6.496094 2.644531-1.761718 1.761719-2.644531 3.960937-2.644531 6.605469v61.871094c0 2.570312.882813 4.734374 2.644531 6.496093 1.980469 1.761719 4.144532 2.640625 6.496094 2.640625 2.492188 0 4.585938-.84375 6.273438-2.53125 1.691406-1.6875 2.535156-3.78125 2.535156-6.277344v-24.109374l23.890625 29.175781c2.054687 2.496093 4.40625 3.742187 7.046875 3.742187 2.496094 0 4.664062-.84375 6.5-2.53125 1.761719-1.90625 2.640625-4.035156 2.640625-6.386718 0-2.128907-.769531-4.035157-2.3125-5.722657l-17.617187-19.265625c4.550781-.882812 7.929687-2.054687 10.128906-3.523437 5.871094-4.035157 8.808594-10.089844 8.808594-18.167969zm-20.644532 6.882812c-1.871094 1.796876-4.09375 2.699219-6.660156 2.699219h-11.671875v-17.945312h11.453125c2.789062 0 5.0625.878906 6.824219 2.640625 1.910156 1.6875 2.863281 3.742187 2.863281 6.164062 0 2.496094-.9375 4.644532-2.808594 6.441406zm0 0" data-original="#000000" class="active-path" style="fill:#000000"/><path d="m286.203125 409.960938c2.128906 0 4-.804688 5.617187-2.421876 1.539063-1.761718 2.3125-3.703124 2.3125-5.832031 0-2.203125-.773437-4.09375-2.3125-5.671875-1.542968-1.574218-3.414062-2.367187-5.617187-2.367187h-28.628906c-2.496094 0-4.625.917969-6.386719 2.753906s-2.640625 3.960937-2.640625 6.382813v61.210937c0 2.570313.878906 4.71875 2.640625 6.441406 1.761719 1.726563 3.925781 2.589844 6.496094 2.589844h29.070312c2.347656 0 4.308594-.773437 5.890625-2.3125 1.578125-1.542969 2.367188-3.414063 2.367188-5.617187 0-1.171876-.21875-2.234376-.660157-3.191407-.441406-.953125-1.03125-1.796875-1.761718-2.53125-1.691406-1.613281-3.632813-2.421875-5.835938-2.421875h-20.261718v-15.742187h17.730468c2.421875 0 4.421875-.789063 6-2.367188s2.367188-3.46875 2.367188-5.671875c0-2.125-.808594-4-2.421875-5.613281-1.617188-1.613281-3.601563-2.421875-5.945313-2.421875h-17.839844v-15.191406h19.820313zm0 0" data-original="#000000" class="active-path" style="fill:#000000"/><path d="m355.6875 409.960938c2.128906 0 4-.804688 5.613281-2.421876 1.542969-1.761718 2.3125-3.703124 2.3125-5.832031 0-2.203125-.769531-4.09375-2.3125-5.671875-1.539062-1.574218-3.410156-2.367187-5.613281-2.367187h-28.628906c-2.496094 0-4.625.917969-6.386719 2.753906s-2.644531 3.960937-2.644531 6.382813v61.210937c0 2.570313.882812 4.71875 2.644531 6.441406 1.761719 1.726563 3.925781 2.589844 6.496094 2.589844h29.066406c2.351563 0 4.3125-.773437 5.894531-2.3125 1.574219-1.542969 2.363282-3.414063 2.363282-5.617187 0-1.171876-.21875-2.234376-.660157-3.191407-.4375-.953125-1.027343-1.796875-1.761719-2.53125-1.6875-1.613281-3.632812-2.421875-5.835937-2.421875h-20.257813v-15.742187h17.726563c2.425781 0 4.421875-.789063 6.003906-2.367188 1.574219-1.578125 2.363281-3.46875 2.363281-5.671875 0-2.125-.808593-4-2.421874-5.613281-1.617188-1.613281-3.597657-2.421875-5.945313-2.421875h-17.835937v-15.191406h19.820312zm0 0" data-original="#000000" class="active-path" style="fill:#000000"/><path d="m454.015625 125.058594c-22.75-38.082032-55.644531-69.816406-95.125-91.765625-39.144531-21.78125-83.742187-33.292969-128.980469-33.292969-45.597656 0-90.480468 11.65625-129.800781 33.707031-39.660156 22.261719-72.59375 54.433594-95.242187 93.03125-4.773438 8.132813-6.089844 17.640625-3.707032 26.777344 2.386719 9.125 8.175782 16.777344 16.304688 21.550781 5.410156 3.175782 11.578125 4.855469 17.832031 4.855469 12.492187 0 24.179687-6.6875 30.503906-17.453125 16.246094-27.6875 40.074219-50.867188 68.910157-67.046875 28.6875-16.101563 61.609374-24.613281 95.203124-24.613281 33.417969 0 66.144532 8.378906 94.640626 24.234375 28.601562 15.910156 52.398437 38.828125 68.804687 66.273437 6.335937 10.605469 17.960937 17.195313 30.339844 17.195313 6.371093 0 12.636719-1.738281 18.109375-5.015625 16.710937-9.996094 22.1875-31.722656 12.207031-48.4375zm-22.554687 31.15625c-2.355469 1.410156-5.039063 2.15625-7.765626 2.15625-5.410156 0-10.285156-2.761719-13.046874-7.386719-18.226563-30.480469-44.613282-55.914063-76.304688-73.542969-31.484375-17.515625-67.597656-26.773437-104.433594-26.773437-37.039062 0-73.367187 9.402343-105.058594 27.1875-31.945312 17.921875-58.375 43.65625-76.425781 74.414062-2.71875 4.632813-7.753906 7.511719-13.132812 7.511719-2.671875 0-5.308594-.722656-7.632813-2.085938-3.496094-2.050781-5.988281-5.34375-7.011718-9.269531-1.023438-3.921875-.460938-8 1.585937-11.492187 20.847656-35.523438 51.183594-65.144532 87.726563-85.660156 36.316406-20.367188 77.792968-31.132813 119.949218-31.132813 41.816406 0 83.027344 10.636719 119.1875 30.753906 36.390625 20.234375 66.6875 49.449219 87.621094 84.492188 4.292969 7.183593 1.9375 16.523437-5.257812 20.828125zm0 0" data-original="#000000" class="active-path" style="fill:#000000"/><path d="m354.484375 229.90625c5.738281 0 11.414063-1.511719 16.417969-4.371094 15.851562-9.082031 21.378906-29.375 12.316406-45.261718-15.484375-26.996094-37.914062-49.53125-64.875-65.167969-26.839844-15.550781-57.441406-23.773438-88.488281-23.773438-31.226563 0-62.019531 8.355469-89.0625 24.164063-27.074219 15.84375-49.527344 38.660156-64.953125 66.007812-4.3125 7.71875-5.371094 16.660156-2.976563 25.175782 2.398438 8.535156 7.976563 15.613281 15.691407 19.921874 4.957031 2.777344 10.5625 4.242188 16.210937 4.242188 11.988281 0 23.074219-6.496094 28.917969-16.933594 9.628906-17.132812 23.660156-31.414062 40.578125-41.304687 16.699219-9.773438 35.921875-14.941407 55.59375-14.941407 19.511719 0 38.632812 5.105469 55.289062 14.769532 16.789063 9.726562 30.800781 23.832031 40.519531 40.773437 5.890626 10.300781 16.933594 16.699219 28.820313 16.699219zm-59.234375-74.898438c-19.722656-11.4375-42.335938-17.484374-65.394531-17.484374-23.246094 0-45.988281 6.121093-65.761719 17.699218-19.996094 11.6875-36.582031 28.570313-47.976562 48.832032-2.296876 4.097656-6.644532 6.644531-11.351563 6.644531-2.242187 0-4.386719-.5625-6.378906-1.675781-3.015625-1.683594-5.191407-4.453126-6.132813-7.792969-.941406-3.351563-.523437-6.867188 1.148438-9.867188 13.65625-24.214843 33.5625-44.4375 57.558594-58.480469 23.957031-14.007812 51.238281-21.410156 78.894531-21.410156 27.507812 0 54.613281 7.28125 78.382812 21.054688 23.898438 13.863281 43.785157 33.839844 57.496094 57.746094 3.558594 6.238281 1.382813 14.214843-4.835937 17.777343-1.960938 1.121094-4.179688 1.710938-6.417969 1.710938-4.675781.003906-9.019531-2.507813-11.335938-6.566407-11.488281-20.023437-28.050781-36.6875-47.894531-48.1875zm0 0" data-original="#000000" class="active-path" style="fill:#000000"/><path d="m288.433594 273.835938c5.003906 0 9.957031-1.3125 14.339844-3.8125 13.8125-7.925782 18.628906-25.625 10.730468-39.472657-8.484375-14.816406-20.808594-27.191406-35.636718-35.789062-14.78125-8.5625-31.589844-13.085938-48.605469-13.085938-17.128907 0-34.054688 4.609375-48.921875 13.332031-14.902344 8.695313-27.242188 21.222657-35.710938 36.253907-3.765625 6.730469-4.6875 14.527343-2.59375 21.957031s6.957032 13.597656 13.671875 17.355469c4.316407 2.429687 9.207031 3.710937 14.136719 3.710937 10.449219 0 20.117188-5.667968 25.234375-14.789062 3.410156-6.082032 8.402344-11.175782 14.378906-14.691406 5.941407-3.449219 12.789063-5.273438 19.800781-5.273438 6.949219 0 13.742188 1.804688 19.628907 5.210938 5.996093 3.484374 10.984375 8.511718 14.429687 14.546874 5.136719 8.976563 14.761719 14.550782 25.117188 14.546876zm-59.171875-54.445313c-10.558594 0-20.902344 2.761719-29.964844 8.023437-9.097656 5.355469-16.628906 13.039063-21.785156 22.230469-1.554688 2.773438-4.496094 4.5-7.667969 4.5-1.5 0-2.9375-.378906-4.28125-1.136719-2.035156-1.140624-3.507812-3.003906-4.140625-5.253906-.636719-2.253906-.355469-4.617187.769531-6.632812 6.699219-11.890625 16.488282-21.824219 28.316406-28.730469 11.800782-6.917969 25.203126-10.574219 38.753907-10.574219 13.472656 0 26.792969 3.585938 38.507812 10.371094 11.761719 6.820312 21.527344 16.628906 28.246094 28.359375 2.402344 4.210937.9375 9.59375-3.246094 11.992187-1.34375.769532-2.804687 1.15625-4.335937 1.15625-3.152344 0-6.078125-1.6875-7.632813-4.398437-5.195312-9.105469-12.730469-16.699219-21.8125-21.976563-8.960937-5.1875-19.242187-7.929687-29.726562-7.929687zm0 0" data-original="#000000" class="active-path" style="fill:#000000"/><path d="m228.75 270.285156c-16.804688 0-30.476562 13.671875-30.476562 30.476563 0 16.816406 13.671874 30.5 30.476562 30.5s30.476562-13.683594 30.476562-30.5c0-16.804688-13.671874-30.476563-30.476562-30.476563zm0 40.835938c-5.699219 0-10.335938-4.648438-10.335938-10.359375 0-5.699219 4.636719-10.332031 10.335938-10.332031s10.335938 4.632812 10.335938 10.332031c0 5.710937-4.636719 10.359375-10.335938 10.359375zm0 0" data-original="#000000" class="active-path" style="fill:#000000"/><path d="m228.835938 373.683594c5.5625 0 10.070312-4.507813 10.070312-10.070313s-4.507812-10.070312-10.070312-10.070312h-.199219c-5.5625 0-10.070313 4.507812-10.070313 10.070312s4.507813 10.070313 10.070313 10.070313zm0 0" data-original="#000000" class="active-path" style="fill:#000000"/></g> </svg>
